<?xml version="1.0" standalone="yes"?>
<svg xmlns="http://www.w3.org/2000/svg" width="223" height="151">
<path style="fill:#ffffff; stroke:none;" d="M0 0L0 151L223 151L223 0L0 0z"/>
<path style="fill:#c6efff; stroke:none;" d="M119 12C120.506 12.683 121.315 12.8259 123 13C121.494 12.317 120.685 12.1741 119 12z"/>
<path style="fill:#a4d3e3; stroke:none;" d="M123 12C124.769 12.7789 126.036 12.9124 128 13C126.231 12.2211 124.964 12.0876 123 12z"/>
<path style="fill:#bdebfb; stroke:none;" d="M128 12C129.248 12.6848 129.548 12.7488 131 13C129.752 12.3152 129.452 12.2512 128 12z"/>
<path style="fill:#a6d0e6; stroke:none;" d="M113.667 13.3333C113.222 13.7778 114.278 13.7222 114.333 13.6667C114.778 13.2222 113.722 13.2778 113.667 13.3333z"/>
<path style="fill:#5a9ec3; stroke:none;" d="M115 13C120.708 15.3951 128.763 14.1905 135 15.1343C140.208 15.9222 144.785 18.65 150 19C140.661 11.4627 126.241 13 115 13z"/>
<path style="fill:#a1d1e7; stroke:none;" d="M134 13C135.248 13.6848 135.548 13.7488 137 14C135.752 13.3152 135.452 13.2512 134 13z"/>
<path style="fill:#7fb7d0; stroke:none;" d="M109.667 14.3333C109.222 14.7778 110.278 14.7222 110.333 14.6667C110.778 14.2222 109.722 14.2778 109.667 14.3333z"/>
<path style="fill:#4da6ce; stroke:none;" d="M62 54C66.0422 56.6678 70.6905 56.5361 74.9606 58.5579C82.4127 62.0862 90.2484 70.0972 94.5324 77C105.058 93.9596 100.752 115.334 83 125.637C76.0567 129.666 67.8144 129.999 60 130C62.3467 132.347 66.7802 132 71 132L97 132L175 132C180.937 132 190.418 133.861 196 132C202.623 129.792 209.774 123.453 213 117C217.985 107.029 215.574 89.0348 209 81C207.402 79.047 205.715 79.1436 204 78C201.536 76.3572 199.133 73.706 197 72L198 71C191.726 69.7788 186.637 66.5282 180 66C179.639 48.5046 171.204 31.1116 156 21.7145C152.85 19.7676 149.682 19.4431 146.285 18.2546C128.039 11.871 108.057 11.9971 91 21.8758C82.2236 26.9587 76.2685 35.036 70.2863 43.0394C67.4677 46.8102 66.1552 51.6059 62 54z"/>
<path style="fill:#acddee; stroke:none;" d="M102 16L103 17L102 16z"/>
<path style="fill:#a2d5f2; stroke:none;" d="M150 18L151 19L150 18z"/>
<path style="fill:#abd5e5; stroke:none;" d="M95 19L96 20L95 19z"/>
<path style="fill:#abdbf2; stroke:none;" d="M93 20L94 21L93 20z"/>
<path style="fill:#a0cbde; stroke:none;" d="M155 21L156 22L155 21z"/>
<path style="fill:#a2d3e4; stroke:none;" d="M88 23L89 24L88 23z"/>
<path style="fill:#b3d4e5; stroke:none;" d="M158 23L159 24L158 23z"/>
<path style="fill:#b5dced; stroke:none;" d="M85 25L86 26L85 25z"/>
<path style="fill:#96c4dc; stroke:none;" d="M84 26L85 27L84 26z"/>
<path style="fill:#9ac9dd; stroke:none;" d="M79 30L80 31L79 30z"/>
<path style="fill:#5ba1c3; stroke:none;" d="M69 44C73.5367 40.5991 77.0808 35.8445 80 31C74.8118 33.5297 71.2188 38.7514 69 44z"/>
<path style="fill:#93c3d7; stroke:none;" d="M168 33L169 34L168 33z"/>
<path style="fill:#9fd8eb; stroke:none;" d="M171 37L172 38L171 37z"/>
<path style="fill:#91c1d7; stroke:none;" d="M71 39L72 40L71 39z"/>
<path style="fill:#f0ffff; stroke:none;" d="M104 39C105.435 43.1394 109.551 44.1857 113 46.5733C117.549 49.7224 121.475 53.5001 124.699 58C131.057 66.8734 133.904 77.1589 132.896 88C132.482 92.4513 131.041 96.4571 131 101C136.05 97.6927 137.982 90.5216 142.184 86.0903C146.377 81.669 153.014 79.3015 156 74C147.41 74.8846 141.816 81.1883 136 87C136 67.2531 126.391 42.4922 104 39z"/>
<path style="fill:#a2d7e9; stroke:none;" d="M111 41L112 42L111 41z"/>
<path style="fill:#59a2c2; stroke:none;" d="M112 41C116.326 45.1946 121.079 49.5338 126 53C124.983 46.5661 118.005 42.4237 112 41z"/>
<path style="fill:#57a4c2; stroke:none;" d="M105 42C105.811 45.8048 113.412 49.4021 117 51C114.532 46.1734 109.861 44.0346 105 42z"/>
<path style="fill:#9bcee1; stroke:none;" d="M113 42L114 43L113 42z"/>
<path style="fill:#b7daed; stroke:none;" d="M174 42L175 43L174 42z"/>
<path style="fill:#a1d2e1; stroke:none;" d="M68 43L69 44L68 43z"/>
<path style="fill:#bbd6e7; stroke:none;" d="M108 43L109 44L108 43z"/>
<path style="fill:#54a3c4; stroke:none;" d="M68 44C66.2116 46.8285 64.7775 50.9328 61.7762 52.6821C55.8745 56.1219 46.6536 53.9131 40 56.4668C22.1497 63.3179 6.84431 80.386 6 100C10.1661 98.7824 10.1668 94.7168 11.5046 91C13.1271 86.4925 15.5527 81.7974 18.4769 78C30.6059 62.2493 47.7476 55.7069 67 57C65.2495 55.7451 64.1427 55.3863 62 55C65.4456 52.5468 68.6516 48.3726 68 44z"/>
<path style="fill:#a1cee5; stroke:none;" d="M116 44L117 45L116 44z"/>
<path style="fill:#b0dbeb; stroke:none;" d="M175 44L176 45L175 44z"/>
<path style="fill:#a5d4e4; stroke:none;" d="M113 46L114 47L113 46z"/>
<path style="fill:#a2d2e6; stroke:none;" d="M64 50L65 51L64 50z"/>
<path style="fill:#63a5c5; stroke:none;" d="M118 50C119.104 52.3572 119.956 53.3761 122 55C120.896 52.6428 120.044 51.6238 118 50z"/>
<path style="fill:#e3ffff; stroke:none;" d="M53 52C56.4324 53.4403 60.2998 53 64 53C60.5676 51.5597 56.7002 52 53 52z"/>
<path style="fill:#a8cee1; stroke:none;" d="M50 53C51.2483 53.6848 51.5484 53.7488 53 54C51.7517 53.3152 51.4516 53.2512 50 53z"/>
<path style="fill:#659bb3; stroke:none;" d="M53 53C55.6127 54.0977 58.1645 53.9928 61 54C58.3873 52.9023 55.8355 53.0072 53 53z"/>
<path style="fill:#82bbd8; stroke:none;" d="M46.6667 54.3333C46.2222 54.7778 47.2778 54.7222 47.3333 54.6667C47.7777 54.2223 46.7222 54.2778 46.6667 54.3333z"/>
<path style="fill:#aed8ee; stroke:none;" d="M126 54L127 55L126 54z"/>
<path style="fill:#5a9fc6; stroke:none;" d="M127 54L132 64C133.871 59.4101 130.954 56.1959 127 54z"/>
<path style="fill:#9dc5de; stroke:none;" d="M127 55L128 56L127 55z"/>
<path style="fill:#8bb8cd; stroke:none;" d="M56 56C58.3316 56.9845 60.4567 56.9813 63 57C60.6684 56.0155 58.5434 56.0187 56 56z"/>
<path style="fill:#add7f0; stroke:none;" d="M37 57L38 58L37 57z"/>
<path style="fill:#aad9e9; stroke:none;" d="M50.6667 57.3333C50.2222 57.7778 51.2778 57.7222 51.3333 57.6667C51.7778 57.2222 50.7222 57.2778 50.6667 57.3333z"/>
<path style="fill:#b4e2fc; stroke:none;" d="M65 57C66.2483 57.6848 66.5484 57.7488 68 58C66.7516 57.3152 66.4516 57.2512 65 57z"/>
<path style="fill:#5fa4c5; stroke:none;" d="M68 57C71.3329 59.0973 75.1736 60.1148 79 61C75.8077 57.9153 72.3647 57.1999 68 57z"/>
<path style="fill:#8bbfd7; stroke:none;" d="M179 57L179 60C179.696 58.4463 179.696 58.5537 179 57z"/>
<path style="fill:#a2d5e8; stroke:none;" d="M35 58L36 59L35 58z"/>
<path style="fill:#c7ecf5; stroke:none;" d="M46.6667 58.3333C46.2222 58.7778 47.2778 58.7222 47.3333 58.6667C47.7778 58.2222 46.7222 58.2778 46.6667 58.3333z"/>
<path style="fill:#a3d1e0; stroke:none;" d="M125 58L126 59L125 58z"/>
<path style="fill:#a3d0e3; stroke:none;" d="M33 59L34 60L33 59z"/>
<path style="fill:#a2d2e6; stroke:none;" d="M130 60L131 61L130 60z"/>
<path style="fill:#a7d9f0; stroke:none;" d="M28 62L29 63L28 62z"/>
<path style="fill:#a8d3e4; stroke:none;" d="M131 62L132 63L131 62z"/>
<path style="fill:#a0c4de; stroke:none;" d="M32 64L33 65L32 64z"/>
<path style="fill:#a6cbdd; stroke:none;" d="M83 64L84 65L83 64z"/>
<path style="fill:#99cbe2; stroke:none;" d="M132 64L133 65L132 64z"/>
<path style="fill:#f0ffff; stroke:none;" d="M13 88C16.5638 85.7647 17.804 81.2863 20.4676 78.0039C24.2793 73.3065 29.2395 69.7044 33 65C23.7295 68.5915 15.7289 78.5489 13 88z"/>
<path style="fill:#a8cad6; stroke:none;" d="M23 66L24 67L23 66z"/>
<path style="fill:#97c9e4; stroke:none;" d="M29 66L30 67L29 66z"/>
<path style="fill:#9dcde3; stroke:none;" d="M184.667 66.3333C184.222 66.7777 185.278 66.7223 185.333 66.6667C185.778 66.2222 184.722 66.2778 184.667 66.3333z"/>
<path style="fill:#a5c6d7; stroke:none;" d="M22 67L23 68L22 67z"/>
<path style="fill:#81b5cb; stroke:none;" d="M130.333 68.6667C130.278 68.7223 130.222 69.7778 130.667 69.3333C130.722 69.2778 130.778 68.2222 130.333 68.6667z"/>
<path style="fill:#9bcada; stroke:none;" d="M20 69L21 70L20 69z"/>
<path style="fill:#61a0b2; stroke:none;" d="M192 69C193.458 70.0811 194.248 70.4361 196 71C194.457 69.7333 193.952 69.5108 192 69z"/>
<path style="fill:#9ac9d9; stroke:none;" d="M19 70L20 71L19 70z"/>
<path style="fill:#9bcada; stroke:none;" d="M196 70L197 71L196 70z"/>
<path style="fill:#94c7da; stroke:none;" d="M18 71L19 72L18 71z"/>
<path style="fill:#8fbfd6; stroke:none;" d="M131.333 71.6667C131.278 71.7222 131.222 72.7778 131.667 72.3333C131.722 72.2778 131.778 71.2222 131.333 71.6667z"/>
<path style="fill:#599dc2; stroke:none;" d="M197 72C199.7 74.8864 202.486 77.1863 206 79C203.968 75.2079 201.139 73.1282 197 72z"/>
<path style="fill:#aad7ee; stroke:none;" d="M92 73L93 74L92 73z"/>
<path style="fill:#a7d3e0; stroke:none;" d="M135.333 73.6667C135.278 73.7222 135.222 74.7778 135.667 74.3333C135.722 74.2778 135.778 73.2222 135.333 73.6667z"/>
<path style="fill:#a7dffa; stroke:none;" d="M153.667 73.3333C153.222 73.7777 154.278 73.7223 154.333 73.6667C154.778 73.2222 153.722 73.2778 153.667 73.3333z"/>
<path style="fill:#c9eeff; stroke:none;" d="M132.333 74.6667C132.278 74.7222 132.222 75.7778 132.667 75.3333C132.722 75.2778 132.778 74.2222 132.333 74.6667z"/>
<path style="fill:#95c5d9; stroke:none;" d="M149 75L150 76L149 75z"/>
<path style="fill:#97c7d3; stroke:none;" d="M203 75L204 76L203 75z"/>
<path style="fill:#a6d1e4; stroke:none;" d="M14 76L15 77L14 76z"/>
<path style="fill:#9ac8df; stroke:none;" d="M132 76L132 79C132.696 77.4463 132.696 77.5537 132 76z"/>
<path style="fill:#589fbd; stroke:none;" d="M155 76C151.289 78.2834 148.02 80.0497 146 84C148.751 82.481 155.596 79.3887 155 76z"/>
<path style="fill:#9dcbe2; stroke:none;" d="M18 77L19 78L18 77z"/>
<path style="fill:#a9d2e8; stroke:none;" d="M206 78L207 79L206 78z"/>
<path style="fill:#acd7e7; stroke:none;" d="M12 79L13 80L12 79z"/>
<path style="fill:#7db9db; stroke:none;" d="M136 79L136 87C137.161 84.2302 137.161 81.7699 136 79z"/>
<path style="fill:#c3e9ff; stroke:none;" d="M58.6667 80.3333C58.2222 80.7778 59.2778 80.7222 59.3333 80.6667C59.7778 80.2222 58.7222 80.2778 58.6667 80.3333z"/>
<path style="fill:#a2cfe6; stroke:none;" d="M60 80C61.506 80.683 62.3148 80.8259 64 81C62.494 80.317 61.6852 80.1741 60 80z"/>
<path style="fill:#f4ffff; stroke:none;" d="M64 80L65 84C60.0585 84.6278 55.0445 85.1954 51.0154 88.3943C40.2023 96.9794 41.3783 113.818 51.0934 122.787C59.1632 130.237 68.9664 129.268 79 128C73.4721 125.331 66.6797 127.689 61 126.028C48.8364 122.471 40.0123 106.487 47.625 95.0046C50.8609 90.1237 62.4096 89.7026 63 85C66.3136 83.899 67.1013 82.0516 64 80z"/>
<path style="fill:#5ba0c7; stroke:none;" d="M63 132C61.7517 131.315 61.4516 131.251 60 131L64 130C57.3484 125.578 50.6733 123.423 46.3634 116C37.6791 101.042 48.4042 84.7602 65 84L65 81C58.238 81.0045 52.3817 81.5994 47.0934 86.3295C30.9686 100.752 42.1164 130.165 63 132z"/>
<path style="fill:#9dd0e3; stroke:none;" d="M209 82L210 83L209 82z"/>
<path style="fill:#abd4e8; stroke:none;" d="M144 83L145 84L144 83z"/>
<path style="fill:#a2cfe6; stroke:none;" d="M49 84L50 85L49 84z"/>
<path style="fill:#a8d6e6; stroke:none;" d="M59 84C60.2483 84.6848 60.5484 84.7488 62 85C60.7516 84.3152 60.4516 84.2512 59 84z"/>
<path style="fill:#afe1ea; stroke:none;" d="M98.3333 84.6667C98.2778 84.7222 98.2222 85.7778 98.6667 85.3333C98.7222 85.2778 98.7778 84.2222 98.3333 84.6667z"/>
<path style="fill:#86b9ce; stroke:none;" d="M132 86L132 89C132.696 87.4463 132.696 87.5537 132 86z"/>
<path style="fill:#acd8e3; stroke:none;" d="M141 86L142 87L141 86z"/>
<path style="fill:#afdaeb; stroke:none;" d="M140 87L141 88L140 87z"/>
<path style="fill:#bcdff5; stroke:none;" d="M99.3333 88.6667C99.2778 88.7222 99.2222 89.7778 99.6667 89.3333C99.7222 89.2778 99.7778 88.2222 99.3333 88.6667z"/>
<path style="fill:#94cbe0; stroke:none;" d="M49 89L50 90L49 89z"/>
<path style="fill:#bcdff2; stroke:none;" d="M132 89L132 92C132.696 90.4463 132.696 90.5537 132 89z"/>
<path style="fill:#bae3f5; stroke:none;" d="M11.3333 90.6667C11.2778 90.7222 11.2222 91.7778 11.6667 91.3333C11.7222 91.2778 11.7778 90.2222 11.3333 90.6667z"/>
<path style="fill:#9ac9e5; stroke:none;" d="M43 90L44 91L43 90z"/>
<path style="fill:#96c4d3; stroke:none;" d="M48 90L49 91L48 90z"/>
<path style="fill:#94c3d3; stroke:none;" d="M47 91L48 92L47 91z"/>
<path style="fill:#87b9d2; stroke:none;" d="M6.33333 93.6667C6.27778 93.7222 6.22223 94.7778 6.66667 94.3333C6.72222 94.2778 6.77778 93.2222 6.33333 93.6667z"/>
<path style="fill:#84bed4; stroke:none;" d="M100 93L100 96C100.696 94.4463 100.696 94.5537 100 93z"/>
<path style="fill:#98c6de; stroke:none;" d="M136 93L137 94L136 93z"/>
<path style="fill:#94cbdf; stroke:none;" d="M45 94L46 95L45 94z"/>
<path style="fill:#a1d8ec; stroke:none;" d="M100 96L100 99C100.696 97.4463 100.696 97.5537 100 96z"/>
<path style="fill:#add1e1; stroke:none;" d="M5 97L5 100C5.6961 98.4463 5.6961 98.5537 5 97z"/>
<path style="fill:#a7daeb; stroke:none;" d="M9 97L9 100C9.6961 98.4463 9.6961 98.5537 9 97z"/>
<path style="fill:#c1e9f5; stroke:none;" d="M130 97L130 100C130.696 98.4463 130.696 98.5537 130 97z"/>
<path style="fill:#a8d4ed; stroke:none;" d="M215 97L215 100C215.696 98.4463 215.696 98.5537 215 97z"/>
<path style="fill:#88b6c6; stroke:none;" d="M39 99L39 108C40.2561 105.006 40.2561 101.994 39 99z"/>
<path style="fill:#b1dff6; stroke:none;" d="M43 99L43 102C43.6961 100.446 43.6961 100.554 43 99z"/>
<path style="fill:#759ba6; stroke:none;" d="M6.66667 100.333C6.22222 100.778 7.27778 100.722 7.33333 100.667C7.77778 100.222 6.72222 100.278 6.66667 100.333z"/>
<path style="fill:#b6d1d8; stroke:none;" d="M8 100L9 101L8 100z"/>
<path style="fill:#7ebad4; stroke:none;" d="M215 100L215 106C215.951 103.715 215.951 102.285 215 100z"/>
<path style="fill:#8dc5dc; stroke:none;" d="M99.3333 104.667C99.2778 104.722 99.2222 105.778 99.6667 105.333C99.7222 105.278 99.7778 104.222 99.3333 104.667z"/>
<path style="fill:#a8d6ed; stroke:none;" d="M215.333 106.667C215.278 106.722 215.222 107.778 215.667 107.333C215.722 107.278 215.778 106.222 215.333 106.667z"/>
<path style="fill:#aedef2; stroke:none;" d="M43 107L43 110C43.6961 108.446 43.6961 108.554 43 107z"/>
<path style="fill:#b4dce8; stroke:none;" d="M39.3333 108.667C39.2778 108.722 39.2222 109.778 39.6667 109.333C39.7222 109.278 39.7778 108.222 39.3333 108.667z"/>
<path style="fill:#cbebfa; stroke:none;" d="M214.333 111.667C214.278 111.722 214.222 112.778 214.667 112.333C214.722 112.278 214.778 111.222 214.333 111.667z"/>
<path style="fill:#b0ddf2; stroke:none;" d="M96 112L97 113L96 112z"/>
<path style="fill:#a9d1db; stroke:none;" d="M95 114L96 115L95 114z"/>
<path style="fill:#f3ffff; stroke:none;" d="M213 114C209.465 125.071 197.41 132.985 186 133.907C157.398 136.217 127.703 134 99 134C81.9775 134 65.0713 136.064 50 127C56.2025 139.095 77.7576 135 89 135L155 135C166.448 135 178.644 136.191 190 134.711C194.881 134.074 199.249 132.015 204 131C204.718 125.476 217.188 121.62 213 114z"/>
<path style="fill:#a4cee4; stroke:none;" d="M47 118L48 119L47 118z"/>
<path style="fill:#9ad1e6; stroke:none;" d="M211 118L212 119L211 118z"/>
<path style="fill:#9ecfde; stroke:none;" d="M43 119L44 120L43 119z"/>
<path style="fill:#9bcade; stroke:none;" d="M209 121L210 122L209 121z"/>
<path style="fill:#acd8e1; stroke:none;" d="M45 122L46 123L45 122z"/>
<path style="fill:#9dc6dc; stroke:none;" d="M47 124L48 125L47 124z"/>
<path style="fill:#96cde2; stroke:none;" d="M85 124L86 125L85 124z"/>
<path style="fill:#93c6db; stroke:none;" d="M48 125L49 126L48 125z"/>
<path style="fill:#9fcad3; stroke:none;" d="M49 126L50 127L49 126z"/>
<path style="fill:#a1d0e2; stroke:none;" d="M56 126L57 127L56 126z"/>
<path style="fill:#a0cfe3; stroke:none;" d="M79 127L80 128L79 127z"/>
<path style="fill:#8fc1d8; stroke:none;" d="M75.6667 128.333C75.2222 128.778 76.2778 128.722 76.3333 128.667C76.7778 128.222 75.7222 128.278 75.6667 128.333z"/>
<path style="fill:#b3ddf5; stroke:none;" d="M53 129L54 130L53 129z"/>
<path style="fill:#98c5d8; stroke:none;" d="M64 129C66.3316 129.985 68.4567 129.981 71 130C68.6684 129.015 66.5434 129.019 64 129z"/>
<path style="fill:#a4d3e3; stroke:none;" d="M200 129L201 130L200 129z"/>
<path style="fill:#b0d9eb; stroke:none;" d="M55 130L56 131L55 130z"/>
<path style="fill:#8bc1dd; stroke:none;" d="M57.6667 131.333C57.2222 131.778 58.2778 131.722 58.3333 131.667C58.7778 131.222 57.7222 131.278 57.6667 131.333z"/>
<path style="fill:#a3c9dc; stroke:none;" d="M60.6667 132.333C60.2222 132.778 61.2778 132.722 61.3333 132.667C61.7778 132.222 60.7222 132.278 60.6667 132.333z"/>
<path style="fill:#60a0bb; stroke:none;" d="M62 132C65.9586 133.661 70.7397 133 75 133L101 133L191 133C187.041 131.339 182.26 132 178 132L152 132L62 132z"/>
<path style="fill:#a3cce0; stroke:none;" d="M191.667 132.333C191.222 132.778 192.278 132.722 192.333 132.667C192.778 132.222 191.722 132.278 191.667 132.333z"/>
<path style="fill:#a7d7ed; stroke:none;" d="M67 133C68.769 133.779 70.0359 133.912 72 134C70.2309 133.221 68.9641 133.088 67 133z"/>
<path style="fill:#c4edff; stroke:none;" d="M72 133C75.9586 134.661 80.7396 134 85 134L108 134L190 134C186.041 132.339 181.26 133 177 133L154 133L72 133z"/>
</svg>
